<svg width="621" height="180" viewBox="0 0 621 180" fill="none" xmlns="http://www.w3.org/2000/svg">
<path d="M261.182 68C260.939 64.9697 259.803 62.6061 257.773 60.9091C255.773 59.2121 252.727 58.3636 248.636 58.3636C246.03 58.3636 243.894 58.6818 242.227 59.3182C240.591 59.9242 239.379 60.7576 238.591 61.8182C237.803 62.8788 237.394 64.0909 237.364 65.4545C237.303 66.5758 237.5 67.5909 237.955 68.5C238.439 69.3788 239.197 70.1818 240.227 70.9091C241.258 71.6061 242.576 72.2424 244.182 72.8182C245.788 73.3939 247.697 73.9091 249.909 74.3636L257.545 76C262.697 77.0909 267.106 78.5303 270.773 80.3182C274.439 82.1061 277.439 84.2121 279.773 86.6364C282.106 89.0303 283.818 91.7273 284.909 94.7273C286.03 97.7273 286.606 101 286.636 104.545C286.606 110.667 285.076 115.848 282.045 120.091C279.015 124.333 274.682 127.561 269.045 129.773C263.439 131.985 256.697 133.091 248.818 133.091C240.727 133.091 233.667 131.894 227.636 129.5C221.636 127.106 216.97 123.424 213.636 118.455C210.333 113.455 208.667 107.061 208.636 99.2727H232.636C232.788 102.121 233.5 104.515 234.773 106.455C236.045 108.394 237.833 109.864 240.136 110.864C242.47 111.864 245.242 112.364 248.455 112.364C251.152 112.364 253.409 112.03 255.227 111.364C257.045 110.697 258.424 109.773 259.364 108.591C260.303 107.409 260.788 106.061 260.818 104.545C260.788 103.121 260.318 101.879 259.409 100.818C258.53 99.7273 257.076 98.7576 255.045 97.9091C253.015 97.0303 250.273 96.2121 246.818 95.4545L237.545 93.4545C229.303 91.6667 222.803 88.6818 218.045 84.5C213.318 80.2879 210.97 74.5455 211 67.2727C210.97 61.3636 212.545 56.197 215.727 51.7727C218.939 47.3182 223.379 43.8485 229.045 41.3636C234.742 38.8788 241.273 37.6364 248.636 37.6364C256.152 37.6364 262.652 38.8939 268.136 41.4091C273.621 43.9242 277.848 47.4697 280.818 52.0455C283.818 56.5909 285.333 61.9091 285.364 68H261.182ZM308.977 132L291.523 62.1818H316.614L324.614 104.727H325.159L334.068 62.1818H358.432L367.705 104.364H368.25L375.886 62.1818H400.977L383.523 132H356.432L346.614 94.5455H345.886L336.068 132H308.977ZM408.614 132V62.1818H432.977V75.4545H433.705C434.977 70.5455 436.992 66.9545 439.75 64.6818C442.538 62.4091 445.795 61.2727 449.523 61.2727C450.614 61.2727 451.689 61.3636 452.75 61.5455C453.841 61.697 454.886 61.9242 455.886 62.2273V83.6364C454.644 83.2121 453.114 82.8939 451.295 82.6818C449.477 82.4697 447.917 82.3636 446.614 82.3636C444.159 82.3636 441.947 82.9242 439.977 84.0455C438.038 85.1364 436.508 86.6818 435.386 88.6818C434.265 90.6515 433.705 92.9697 433.705 95.6364V132H408.614ZM486.659 115.455L486.841 85.6364H490.114L507.023 62.1818H535.205L506.841 98.7273H499.75L486.659 115.455ZM464.114 132V38.9091H489.205V132H464.114ZM507.205 132L491.205 104.364L507.568 86.5455L535.932 132H507.205ZM592.83 72.3636L580.466 38.9091H588.83L595.739 59.3636L602.648 38.9091H611.011L598.648 72.3636H592.83ZM576.83 72.3636V38.9091H587.011V72.3636H576.83ZM604.466 72.3636V38.9091H614.648V72.3636H604.466ZM550.648 72.3636V41.8182H560.83V72.3636H550.648ZM540.466 47.0909V38.9091H571.011V47.0909H540.466Z" fill="white"/>
<rect x="4" y="4" width="172" height="172" rx="38" fill="#B8E6FE" stroke="white" stroke-width="8"/>
<rect x="28.1565" y="28.421" width="100.559" height="105.263" rx="16" fill="#EFEFEF"/>
<rect x="51" y="46" width="100.559" height="105.263" rx="16" fill="white"/>
</svg>
